<svg width="115" height="59" viewBox="0 0 115 59" fill="none" xmlns="http://www.w3.org/2000/svg">
<path d="M7.49683 22V6H10.8796V12.6016H17.7468V6H21.1218V22H17.7468V15.3906H10.8796V22H7.49683ZM29.3171 22.2344C28.0828 22.2344 27.0203 21.9844 26.1296 21.4844C25.2442 20.9792 24.5619 20.2656 24.0828 19.3437C23.6036 18.4167 23.364 17.3203 23.364 16.0547C23.364 14.8203 23.6036 13.737 24.0828 12.8047C24.5619 11.8724 25.2364 11.1458 26.1062 10.625C26.9812 10.1042 28.0072 9.84375 29.1843 9.84375C29.976 9.84375 30.713 9.97135 31.3953 10.2266C32.0828 10.4766 32.6817 10.8542 33.1921 11.3594C33.7078 11.8646 34.1088 12.5 34.3953 13.2656C34.6817 14.026 34.825 14.9167 34.825 15.9375V16.8516H24.6921V14.7891H31.6921C31.6921 14.3099 31.588 13.8854 31.3796 13.5156C31.1713 13.1458 30.8822 12.8568 30.5125 12.6484C30.1479 12.4349 29.7234 12.3281 29.239 12.3281C28.7338 12.3281 28.2859 12.4453 27.8953 12.6797C27.5098 12.9089 27.2078 13.2187 26.989 13.6094C26.7703 13.9948 26.6583 14.4245 26.6531 14.8984V16.8594C26.6531 17.4531 26.7625 17.9661 26.9812 18.3984C27.2052 18.8307 27.5203 19.1641 27.9265 19.3984C28.3328 19.6328 28.8145 19.75 29.3718 19.75C29.7416 19.75 30.0802 19.6979 30.3875 19.5938C30.6947 19.4896 30.9578 19.3333 31.1765 19.125C31.3953 18.9167 31.5619 18.6615 31.6765 18.3594L34.7546 18.5625C34.5984 19.3021 34.2781 19.9479 33.7937 20.5C33.3145 21.0469 32.6947 21.474 31.9343 21.7813C31.1791 22.0833 30.3067 22.2344 29.3171 22.2344ZM40.4187 22.2266C39.6531 22.2266 38.9708 22.0938 38.3718 21.8281C37.7729 21.5573 37.2989 21.1589 36.95 20.6328C36.6062 20.1016 36.4343 19.4401 36.4343 18.6484C36.4343 17.9818 36.5567 17.4219 36.8015 16.9687C37.0463 16.5156 37.3796 16.151 37.8015 15.875C38.2234 15.599 38.7026 15.3906 39.239 15.25C39.7807 15.1094 40.3484 15.0104 40.9421 14.9531C41.6401 14.8802 42.2026 14.8125 42.6296 14.75C43.0567 14.6823 43.3666 14.5833 43.5593 14.4531C43.752 14.3229 43.8484 14.1302 43.8484 13.875V13.8281C43.8484 13.3333 43.6921 12.9505 43.3796 12.6797C43.0723 12.4089 42.6348 12.2734 42.0671 12.2734C41.4682 12.2734 40.9916 12.4062 40.6375 12.6719C40.2833 12.9323 40.0489 13.2604 39.9343 13.6562L36.8562 13.4062C37.0125 12.6771 37.3197 12.0469 37.7781 11.5156C38.2364 10.9792 38.8276 10.5677 39.5515 10.2812C40.2807 9.98958 41.1244 9.84375 42.0828 9.84375C42.7494 9.84375 43.3875 9.92187 43.9968 10.0781C44.6114 10.2344 45.1557 10.4766 45.6296 10.8047C46.1088 11.1328 46.4864 11.5547 46.7625 12.0703C47.0385 12.5807 47.1765 13.1927 47.1765 13.9062V22H44.0203V20.3359H43.9265C43.7338 20.7109 43.476 21.0417 43.1531 21.3281C42.8302 21.6094 42.4421 21.8307 41.989 21.9922C41.5359 22.1484 41.0125 22.2266 40.4187 22.2266ZM41.3718 19.9297C41.8614 19.9297 42.2937 19.8333 42.6687 19.6406C43.0437 19.4427 43.338 19.1771 43.5515 18.8438C43.7651 18.5104 43.8718 18.1328 43.8718 17.7109V16.4375C43.7677 16.5052 43.6244 16.5677 43.4421 16.625C43.2651 16.6771 43.0645 16.7266 42.8406 16.7734C42.6166 16.8151 42.3927 16.8542 42.1687 16.8906C41.9447 16.9219 41.7416 16.9505 41.5593 16.9766C41.1687 17.0339 40.8276 17.125 40.5359 17.25C40.2442 17.375 40.0177 17.5443 39.8562 17.7578C39.6947 17.9661 39.614 18.2266 39.614 18.5391C39.614 18.9922 39.7781 19.3385 40.1062 19.5781C40.4395 19.8125 40.8614 19.9297 41.3718 19.9297ZM53.0867 6V22H49.7585V6H53.0867ZM62.1355 10V12.5H54.9089V10H62.1355ZM56.5496 7.125H59.8777V18.3125C59.8777 18.6198 59.9246 18.8594 60.0183 19.0312C60.1121 19.1979 60.2423 19.3151 60.4089 19.3828C60.5808 19.4505 60.7787 19.4844 61.0027 19.4844C61.1589 19.4844 61.3152 19.4714 61.4714 19.4453C61.6277 19.4141 61.7475 19.3906 61.8308 19.375L62.3542 21.8516C62.1876 21.9036 61.9532 21.9635 61.6511 22.0313C61.349 22.1042 60.9819 22.1484 60.5496 22.1641C59.7475 22.1953 59.0444 22.0885 58.4402 21.8437C57.8412 21.599 57.3751 21.2187 57.0417 20.7031C56.7084 20.1875 56.5444 19.5365 56.5496 18.75V7.125ZM67.8894 15.0625V22H64.5613V6H67.7957V12.1172H67.9363C68.2071 11.4089 68.6446 10.8542 69.2488 10.4531C69.8529 10.0469 70.6108 9.84375 71.5222 9.84375C72.3556 9.84375 73.0821 10.026 73.7019 10.3906C74.3269 10.75 74.8113 11.2682 75.155 11.9453C75.504 12.6172 75.6759 13.4219 75.6707 14.3594V22H72.3425V14.9531C72.3477 14.2135 72.1602 13.638 71.78 13.2266C71.405 12.8151 70.879 12.6094 70.2019 12.6094C69.7488 12.6094 69.3477 12.7057 68.9988 12.8984C68.655 13.0911 68.3842 13.3724 68.1863 13.7422C67.9936 14.1068 67.8946 14.5469 67.8894 15.0625ZM38.0476 33H42.2195L46.6257 43.75H46.8132L51.2195 33H55.3914V49H52.1101V38.5859H51.9773L47.8367 48.9219H45.6023L41.4617 38.5469H41.3289V49H38.0476V33ZM61.5378 49.2266C60.7722 49.2266 60.0899 49.0938 59.491 48.8281C58.892 48.5573 58.4181 48.1589 58.0691 47.6328C57.7253 47.1016 57.5535 46.4401 57.5535 45.6484C57.5535 44.9818 57.6759 44.4219 57.9207 43.9687C58.1654 43.5156 58.4988 43.151 58.9207 42.875C59.3425 42.599 59.8217 42.3906 60.3582 42.25C60.8998 42.1094 61.4675 42.0104 62.0613 41.9531C62.7592 41.8802 63.3217 41.8125 63.7488 41.75C64.1759 41.6823 64.4858 41.5833 64.6785 41.4531C64.8712 41.3229 64.9675 41.1302 64.9675 40.875V40.8281C64.9675 40.3333 64.8113 39.9505 64.4988 39.6797C64.1915 39.4089 63.754 39.2734 63.1863 39.2734C62.5873 39.2734 62.1108 39.4062 61.7566 39.6719C61.4024 39.9323 61.1681 40.2604 61.0535 40.6562L57.9753 40.4062C58.1316 39.6771 58.4389 39.0469 58.8972 38.5156C59.3556 37.9792 59.9467 37.5677 60.6707 37.2812C61.3998 36.9896 62.2436 36.8438 63.2019 36.8438C63.8686 36.8438 64.5066 36.9219 65.116 37.0781C65.7306 37.2344 66.2748 37.4766 66.7488 37.8047C67.2279 38.1328 67.6056 38.5547 67.8816 39.0703C68.1576 39.5807 68.2957 40.1927 68.2957 40.9062V49H65.1394V47.3359H65.0457C64.8529 47.7109 64.5951 48.0417 64.2722 48.3281C63.9493 48.6094 63.5613 48.8307 63.1082 48.9922C62.655 49.1484 62.1316 49.2266 61.5378 49.2266ZM62.491 46.9297C62.9806 46.9297 63.4128 46.8333 63.7878 46.6406C64.1628 46.4427 64.4571 46.1771 64.6707 45.8438C64.8842 45.5104 64.991 45.1328 64.991 44.7109V43.4375C64.8868 43.5052 64.7436 43.5677 64.5613 43.625C64.3842 43.6771 64.1837 43.7266 63.9597 43.7734C63.7358 43.8151 63.5118 43.8542 63.2878 43.8906C63.0639 43.9219 62.8608 43.9505 62.6785 43.9766C62.2878 44.0339 61.9467 44.125 61.655 44.25C61.3634 44.375 61.1368 44.5443 60.9753 44.7578C60.8139 44.9661 60.7332 45.2266 60.7332 45.5391C60.7332 45.9922 60.8972 46.3385 61.2253 46.5781C61.5587 46.8125 61.9806 46.9297 62.491 46.9297ZM80.8621 40.4219L77.8152 40.6094C77.7631 40.349 77.6511 40.1146 77.4792 39.9062C77.3074 39.6927 77.0808 39.5234 76.7996 39.3984C76.5235 39.2682 76.1928 39.2031 75.8074 39.2031C75.2917 39.2031 74.8569 39.3125 74.5027 39.5312C74.1485 39.7448 73.9714 40.0312 73.9714 40.3906C73.9714 40.6771 74.086 40.9193 74.3152 41.1172C74.5444 41.3151 74.9376 41.474 75.4949 41.5937L77.6667 42.0312C78.8334 42.2708 79.7032 42.6562 80.2761 43.1875C80.849 43.7187 81.1355 44.4167 81.1355 45.2812C81.1355 46.0677 80.9037 46.7578 80.4402 47.3516C79.9819 47.9453 79.3516 48.4089 78.5496 48.7422C77.7527 49.0703 76.8334 49.2344 75.7917 49.2344C74.2032 49.2344 72.9376 48.9036 71.9949 48.2422C71.0574 47.5755 70.5079 46.6693 70.3464 45.5234L73.6199 45.3516C73.7188 45.8359 73.9584 46.2057 74.3386 46.4609C74.7188 46.7109 75.2058 46.8359 75.7996 46.8359C76.3829 46.8359 76.8516 46.724 77.2058 46.5C77.5652 46.2708 77.7475 45.9766 77.7527 45.6172C77.7475 45.3151 77.6199 45.0677 77.3699 44.875C77.1199 44.6771 76.7345 44.526 76.2136 44.4219L74.1355 44.0078C72.9636 43.7734 72.0912 43.3672 71.5183 42.7891C70.9506 42.2109 70.6667 41.474 70.6667 40.5781C70.6667 39.8073 70.8751 39.1432 71.2917 38.5859C71.7136 38.0286 72.3048 37.599 73.0652 37.2969C73.8308 36.9948 74.7266 36.8438 75.7527 36.8438C77.2683 36.8438 78.461 37.1641 79.3308 37.8047C80.2058 38.4453 80.7162 39.3177 80.8621 40.4219ZM89.614 37V39.5H82.3875V37H89.614ZM84.0281 34.125H87.3562V45.3125C87.3562 45.6198 87.4031 45.8594 87.4968 46.0312C87.5906 46.1979 87.7208 46.3151 87.8875 46.3828C88.0593 46.4505 88.2572 46.4844 88.4812 46.4844C88.6375 46.4844 88.7937 46.4714 88.95 46.4453C89.1062 46.4141 89.226 46.3906 89.3093 46.375L89.8328 48.8516C89.6661 48.9036 89.4317 48.9635 89.1296 49.0313C88.8276 49.1042 88.4604 49.1484 88.0281 49.1641C87.226 49.1953 86.5229 49.0885 85.9187 48.8437C85.3197 48.599 84.8536 48.2187 84.5203 47.7031C84.1869 47.1875 84.0229 46.5365 84.0281 45.75V34.125ZM97.1218 49.2344C95.8875 49.2344 94.825 48.9844 93.9343 48.4844C93.0489 47.9792 92.3666 47.2656 91.8875 46.3437C91.4083 45.4167 91.1687 44.3203 91.1687 43.0547C91.1687 41.8203 91.4083 40.737 91.8875 39.8047C92.3666 38.8724 93.0411 38.1458 93.9109 37.625C94.7859 37.1042 95.8119 36.8438 96.989 36.8438C97.7807 36.8438 98.5177 36.9714 99.2 37.2266C99.8875 37.4766 100.486 37.8542 100.997 38.3594C101.512 38.8646 101.913 39.5 102.2 40.2656C102.486 41.026 102.63 41.9167 102.63 42.9375V43.8516H92.4968V41.7891H99.4968C99.4968 41.3099 99.3927 40.8854 99.1843 40.5156C98.976 40.1458 98.6869 39.8568 98.3171 39.6484C97.9526 39.4349 97.5281 39.3281 97.0437 39.3281C96.5385 39.3281 96.0906 39.4453 95.7 39.6797C95.3145 39.9089 95.0125 40.2187 94.7937 40.6094C94.575 40.9948 94.463 41.4245 94.4578 41.8984V43.8594C94.4578 44.4531 94.5671 44.9661 94.7859 45.3984C95.0098 45.8307 95.325 46.1641 95.7312 46.3984C96.1375 46.6328 96.6192 46.75 97.1765 46.75C97.5463 46.75 97.8848 46.6979 98.1921 46.5938C98.4994 46.4896 98.7625 46.3333 98.9812 46.125C99.2 45.9167 99.3666 45.6615 99.4812 45.3594L102.559 45.5625C102.403 46.3021 102.083 46.9479 101.598 47.5C101.119 48.0469 100.499 48.474 99.739 48.7813C98.9838 49.0833 98.1114 49.2344 97.1218 49.2344ZM104.802 49V37H108.028V39.0937H108.153C108.372 38.349 108.739 37.7865 109.255 37.4063C109.77 37.0208 110.364 36.8281 111.036 36.8281C111.203 36.8281 111.382 36.8385 111.575 36.8594C111.768 36.8802 111.937 36.9089 112.083 36.9453V39.8984C111.927 39.8516 111.71 39.8099 111.434 39.7734C111.158 39.737 110.906 39.7188 110.677 39.7188C110.187 39.7188 109.749 39.8255 109.364 40.0391C108.984 40.2474 108.682 40.5391 108.458 40.9141C108.239 41.2891 108.13 41.7214 108.13 42.2109V49H104.802Z" fill="#222222"/>
<g clip-path="url(#clip0_1_28)">
<path d="M28.2785 33.1467C27.5854 32.4653 26.7625 31.9249 25.8568 31.5561C24.9511 31.1874 23.9804 30.9976 23 30.9976C22.0196 30.9976 21.0489 31.1874 20.1432 31.5561C19.2375 31.9249 18.4146 32.4653 17.7215 33.1467L16.2832 34.56L14.8448 33.1467C13.4449 31.7711 11.5462 30.9983 9.56636 30.9983C7.58656 30.9983 5.68783 31.7711 4.2879 33.1467C2.88796 34.5223 2.10149 36.388 2.10149 38.3333C2.10149 40.2787 2.88796 42.1444 4.2879 43.52L16.2832 55.3067L28.2785 43.52C28.9718 42.839 29.5219 42.0304 29.8972 41.1405C30.2724 40.2505 30.4656 39.2966 30.4656 38.3333C30.4656 37.37 30.2724 36.4161 29.8972 35.5262C29.5219 34.6362 28.9718 33.8277 28.2785 33.1467Z" stroke="#222222" stroke-width="4" stroke-linecap="round" stroke-linejoin="round"/>
</g>
<defs>
<clipPath id="clip0_1_28">
<rect width="32.5664" height="32" fill="white" transform="translate(0 27)"/>
</clipPath>
</defs>
</svg>
